<svg width="512" height="512" viewBox="0 0 512 512" fill="none" xmlns="http://www.w3.org/2000/svg">
<path d="M444.88 0H67.1199C30.0506 0 0 30.0506 0 67.1199V444.88C0 481.949 30.0506 512 67.1199 512H444.88C481.949 512 512 481.949 512 444.88V67.1199C512 30.0506 481.949 0 444.88 0Z" fill="url(#paint0_linear_55_19796)"/>
<path d="M413.742 189.354C411.858 184.908 409.787 180.566 407.564 176.319H349.138C368.177 198.505 378.568 226.46 378.568 256.006C378.568 288.747 365.813 319.522 342.667 342.679C319.522 365.825 288.735 378.579 255.994 378.579C223.253 378.579 192.478 365.825 169.321 342.679C146.175 319.534 133.421 288.747 133.421 256.006C133.421 226.46 143.812 198.516 162.85 176.319H104.424C102.189 180.566 100.13 184.908 98.246 189.354C89.3061 210.475 84.7776 232.907 84.7776 256.006C84.7776 279.105 89.3061 301.537 98.246 322.658C106.87 343.054 119.215 361.355 134.93 377.07C150.645 392.785 168.958 405.13 189.342 413.754C210.464 422.694 232.895 427.223 255.994 427.223C279.093 427.223 301.525 422.694 322.646 413.754C343.042 405.13 361.343 392.785 377.058 377.07C392.773 361.355 405.118 343.042 413.742 322.658C422.682 301.537 427.211 279.105 427.211 256.006C427.211 232.907 422.682 210.475 413.742 189.354Z" fill="white"/>
<path d="M227.197 136.814V339.578H284.803V136.814C294.235 139.073 303.315 142.443 311.916 146.854H387.929C384.512 142.735 380.885 138.745 377.07 134.93C361.355 119.215 343.042 106.87 322.658 98.246C301.537 89.3061 279.105 84.7776 256.006 84.7776C232.907 84.7776 210.475 89.3061 189.354 98.246C168.958 106.87 150.657 119.215 134.942 134.93C131.116 138.757 127.5 142.735 124.083 146.854H200.096C208.685 142.443 217.777 139.073 227.209 136.814H227.197Z" fill="white"/>
<defs>
<linearGradient id="paint0_linear_55_19796" x1="341.281" y1="94.1674" x2="154.407" y2="448.787" gradientUnits="userSpaceOnUse">
<stop stop-color="#1F94D2"/>
<stop offset="0.4898" stop-color="#6561AB"/>
<stop offset="1" stop-color="#2B3594"/>
</linearGradient>
</defs>
</svg>
